<svg width="188.000000" height="28.629456" viewBox="0 0 188 28.6295" fill="none" xmlns="http://www.w3.org/2000/svg" xmlns:xlink="http://www.w3.org/1999/xlink">
	<desc>
			Created with Pixso.
	</desc>
	<defs>
		<clipPath id="clip1_930">
			<rect id="main_logo.svg" rx="0.000000" width="187.045685" height="27.675127" transform="translate(0.477157 0.477157)" fill="white" fill-opacity="0"/>
		</clipPath>
	</defs>
	<g clip-path="url(#clip1_930)">
		<path id="Vector" d="M36.9 18.4C36.56 18.63 36.16 18.85 35.71 19.02C34.81 19.37 33.86 19.47 33.22 19.36C33.74 19.11 34.27 18.82 34.79 18.49C34.86 18.44 35.4 18.06 35.42 18.05C35.79 17.77 36.15 17.48 36.48 17.19C36.5 17.17 36.69 17.01 36.75 16.94C36.8 16.88 36.96 16.73 36.99 16.71C39.09 14.6 39.97 12.16 38.93 10.76C38.4 10.04 37.44 9.7 36.28 9.73C35.83 10.06 35.29 10.38 34.68 10.61C33.69 10.99 32.7 11.12 31.9 11.03C32.69 10.68 33.5 10.24 34.29 9.7C34.37 9.65 34.45 9.6 34.51 9.55C38.17 6.96 40.31 3.07 38.9 1.15C38.49 0.59 37.85 0.24 37.05 0.09C36.99 0.07 36.64 0.03 36.62 0.03C36.5 0.02 36.35 0.01 36.25 0.01C31.65 -0.23 25.94 2.72 22.14 7.68C16.86 14.58 16.67 23.19 21.7 26.91C24.68 29.12 28.82 29.11 32.8 27.31C33.05 27.2 33.9 26.75 34.27 26.51C34.5 26.36 35.3 25.82 35.48 25.66C38.13 23.54 39.38 20.76 38.26 19.25C37.95 18.82 37.48 18.54 36.9 18.4Z" fill="#FC004A" fill-opacity="1.000000" fill-rule="nonzero"/>
		<path id="Vector" d="M7.81 21.3L7.81 2.77C7.81 1.57 6.84 0.59 5.63 0.55L0 0.55L0 25.96C0.03 27.14 0.98 28.09 2.17 28.12L14.86 28.12L14.86 21.3L7.81 21.3Z" fill="#FC004A" fill-opacity="1.000000" fill-rule="nonzero"/>
		<path id="Vector" d="M50.62 8.32C50.62 7.49 51.15 6.84 52.59 6.84C53.77 6.84 55 7.06 56.17 7.54C57.07 7.9 57.94 8.41 58.73 9.07L61.08 5.24C61.93 3.88 61.73 2.69 60.41 1.97C60.38 1.96 60.36 1.94 60.33 1.93C58.19 0.73 55.64 0.1 52.89 0.1C46.1 0.1 42.63 4.48 42.63 8.95C42.63 18.78 54.84 17.17 54.84 20.23C54.84 21.26 53.76 21.88 52.31 21.88C49.62 21.88 47.1 20.72 45.44 18.99L43.08 22.85C42.35 23.97 42.32 25.46 43.53 26.3C43.55 26.32 43.57 26.32 43.6 26.34C45.83 27.8 48.66 28.62 52.36 28.62C58.77 28.62 62.74 25.06 62.74 19.45C62.74 10.14 50.62 11.21 50.62 8.32Z" fill="#FC004A" fill-opacity="1.000000" fill-rule="nonzero"/>
		<path id="Vector" d="M91.76 2.12C91.5 1.31 90.86 0.55 89.32 0.55L81.82 0.55L73.71 28.12L79.8 28.12C80.77 28.09 81.58 27.45 81.86 26.57L82.46 24.57L90.62 24.57L91.17 26.47C91.42 27.4 92.27 28.09 93.27 28.12L99.41 28.12L91.76 2.12ZM84.47 17.74L86.58 9.99L88.66 17.74L84.47 17.74Z" fill="#FC004A" fill-opacity="1.000000" fill-rule="nonzero"/>
		<path id="Vector" d="M108.23 0.55L102.6 0.55L102.6 25.93C102.61 27.13 103.58 28.09 104.77 28.12L110.41 28.12L110.41 2.74C110.41 1.5 109.42 0.59 108.23 0.55Z" fill="#FC004A" fill-opacity="1.000000" fill-rule="nonzero"/>
		<path id="Vector" d="M123.9 21.3L123.9 2.77C123.9 1.57 122.93 0.59 121.72 0.55L116.08 0.55L116.08 25.96C116.12 27.14 117.08 28.09 118.25 28.12L130.96 28.12L130.96 21.3L123.9 21.3Z" fill="#FC004A" fill-opacity="1.000000" fill-rule="nonzero"/>
		<path id="Vector" d="M152.99 18.4C152.65 18.63 152.24 18.85 151.79 19.02C150.89 19.37 149.94 19.47 149.31 19.36C149.83 19.11 150.36 18.82 150.88 18.49C150.94 18.44 151.49 18.06 151.51 18.05C151.88 17.77 152.23 17.48 152.57 17.19C152.6 17.17 152.77 17.01 152.84 16.94C152.9 16.88 153.05 16.73 153.07 16.71C155.18 14.6 156.06 12.16 155.02 10.76C154.49 10.04 153.54 9.7 152.36 9.73C151.92 10.06 151.38 10.38 150.77 10.61C149.78 10.99 148.79 11.12 147.98 11.03C148.78 10.68 149.59 10.24 150.39 9.7C150.46 9.65 150.53 9.6 150.61 9.55C154.26 6.96 156.4 3.07 155 1.15C154.58 0.59 153.94 0.24 153.14 0.09C153.07 0.07 152.73 0.03 152.71 0.03C152.59 0.02 152.44 0.01 152.33 0.01C147.74 -0.23 142.02 2.72 138.23 7.68C132.95 14.58 132.75 23.19 137.78 26.91C140.76 29.12 144.91 29.11 148.89 27.31C149.13 27.2 149.98 26.75 150.36 26.51C150.59 26.36 151.38 25.82 151.57 25.66C154.22 23.54 155.46 20.76 154.35 19.25C154.04 18.82 153.57 18.54 152.98 18.4L152.99 18.4Z" fill="#FC004A" fill-opacity="1.000000" fill-rule="nonzero"/>
		<path id="Vector" d="M166.7 8.32C166.7 7.49 167.24 6.84 168.69 6.84C169.86 6.84 171.09 7.06 172.26 7.54C173.16 7.9 174.03 8.41 174.82 9.07L177.17 5.24C178.02 3.88 177.81 2.69 176.49 1.97C176.47 1.96 176.45 1.94 176.42 1.93C174.28 0.73 171.73 0.1 168.98 0.1C162.19 0.1 158.72 4.48 158.72 8.95C158.72 18.78 170.92 17.17 170.92 20.23C170.92 21.26 169.85 21.88 168.4 21.88C165.71 21.88 163.19 20.72 161.53 18.99L159.17 22.85C158.44 23.97 158.41 25.46 159.62 26.3C159.64 26.32 159.66 26.32 159.68 26.34C161.93 27.8 164.74 28.62 168.44 28.62C174.85 28.62 178.83 25.06 178.83 19.45C178.83 10.14 166.7 11.21 166.7 8.32Z" fill="#FC004A" fill-opacity="1.000000" fill-rule="nonzero"/>
		<path id="Vector" d="M184.35 4.98L183.73 4.98L183.73 1.47L184.3 1.47C184.6 1.47 184.77 1.47 184.8 1.47C185.64 1.47 186.06 1.82 186.06 2.55C186.06 2.82 185.99 3.03 185.86 3.21C185.73 3.37 185.57 3.49 185.4 3.54L186.49 4.98L185.74 4.98L184.78 3.67L184.35 3.67L184.35 4.98ZM184.35 2.05L184.35 3.08L184.75 3.08C185.13 3.08 185.42 2.89 185.42 2.55C185.42 2.21 185.21 2.04 184.77 2.04C184.71 2.04 184.57 2.04 184.35 2.05Z" fill="#FC004A" fill-opacity="1.000000" fill-rule="nonzero"/>
		<path id="Vector" d="M184.87 6.34C183.14 6.34 181.74 4.94 181.74 3.22C181.74 1.5 183.14 0.1 184.87 0.1C186.59 0.1 188 1.5 188 3.22C188 4.94 186.59 6.34 184.87 6.34ZM184.87 0.63C183.44 0.63 182.27 1.78 182.27 3.22C182.27 4.65 183.44 5.81 184.87 5.81C186.3 5.81 187.47 4.65 187.47 3.22C187.47 1.79 186.3 0.63 184.87 0.63Z" fill="#FC004A" fill-opacity="1.000000" fill-rule="nonzero"/>
	</g>
</svg>
